<?xml version="1.0" encoding="UTF-8" standalone="no"?>
<svg
   xmlns:dc="http://purl.org/dc/elements/1.1/"
   xmlns:cc="http://creativecommons.org/ns#"
   xmlns:rdf="http://www.w3.org/1999/02/22-rdf-syntax-ns#"
   xmlns:svg="http://www.w3.org/2000/svg"
   xmlns="http://www.w3.org/2000/svg"
   xmlns:xlink="http://www.w3.org/1999/xlink"
   xmlns:sodipodi="http://sodipodi.sourceforge.net/DTD/sodipodi-0.dtd"
   xmlns:inkscape="http://www.inkscape.org/namespaces/inkscape"
   version="1.1"
   id="svg28"
   xml:space="preserve"
   width="1920"
   height="960"
   viewBox="0 0 1920 960"
   sodipodi:docname="PQRST.svg"
   inkscape:version="1.0.1 (c497b03c, 2020-09-10)"><metadata
     id="metadata34"><rdf:RDF><cc:Work
         rdf:about=""><dc:format>image/svg+xml</dc:format><dc:type
           rdf:resource="http://purl.org/dc/dcmitype/StillImage" /><dc:title></dc:title></cc:Work></rdf:RDF></metadata><defs
     id="defs32"><linearGradient
       inkscape:collect="always"
       id="linearGradient210"><stop
         style="stop-color:#ffffff;stop-opacity:1;"
         offset="0"
         id="stop206" /><stop
         style="stop-color:#ffffff;stop-opacity:0;"
         offset="1"
         id="stop208" /></linearGradient><clipPath
       clipPathUnits="userSpaceOnUse"
       id="clipPath116"><path
         d="M -1021,-463 H 1794 V 1233 H -1021 Z"
         id="path114" /></clipPath><clipPath
       clipPathUnits="userSpaceOnUse"
       id="clipPath136"><path
         d="M -1021,-463 H 1794 V 1233 H -1021 Z"
         id="path134" /></clipPath><clipPath
       clipPathUnits="userSpaceOnUse"
       id="clipPath180"><path
         d="M 180,79.2 H 1296 V 633.6 H 180 Z"
         id="path178" /></clipPath><linearGradient
       inkscape:collect="always"
       xlink:href="#linearGradient210"
       id="linearGradient204"
       x1="470.34354"
       y1="77.346413"
       x2="470.34354"
       y2="293.68063"
       gradientUnits="userSpaceOnUse" /></defs><sodipodi:namedview
     pagecolor="#ffffff"
     bordercolor="#666666"
     borderopacity="1"
     objecttolerance="10"
     gridtolerance="10"
     guidetolerance="10"
     inkscape:pageopacity="0"
     inkscape:pageshadow="2"
     inkscape:window-width="1812"
     inkscape:window-height="1257"
     id="namedview30"
     showgrid="false"
     inkscape:zoom="0.92"
     inkscape:cx="1272.827"
     inkscape:cy="361.26431"
     inkscape:window-x="0"
     inkscape:window-y="23"
     inkscape:window-maximized="0"
     inkscape:current-layer="g36" /><g
     id="g36"
     inkscape:groupmode="layer"
     inkscape:label="PQRST"
     transform="matrix(1.3333333,0,0,-1.3333333,0,960)"><path
       d="M 0,0 H 1440 V 720 H 0 Z"
       style="fill:#ffffff;fill-opacity:1;fill-rule:nonzero;stroke:none"
       id="path38" /><path
       d="M 180,79.2 H 1296 V 633.6 H 180 Z"
       style="fill:#ffffff;fill-opacity:1;fill-rule:nonzero;stroke:none"
       id="path40" /><path
       d="M 230.72727,79.2 V 75.7"
       style="fill:#000000;fill-opacity:1;fill-rule:nonzero;stroke:#000000;stroke-width:0.8;stroke-linecap:butt;stroke-linejoin:round;stroke-miterlimit:10;stroke-dasharray:none;stroke-opacity:1"
       id="path42" /><text
       transform="matrix(1,0,0,-1,222.77415,64.60625)"
       style="font-variant:normal;font-weight:normal;font-size:10px;font-family:DejaVuSans;-inkscape-font-specification:DejaVuSans;writing-mode:lr-tb;fill:#000000;fill-opacity:1;fill-rule:nonzero;stroke:none"
       id="text46"><tspan
         x="0 6.3600001 9.54"
         y="0"
         sodipodi:role="line"
         id="tspan44">1.6</tspan></text><path
       d="M 358.18273,79.2 V 75.7"
       style="fill:#000000;fill-opacity:1;fill-rule:nonzero;stroke:#000000;stroke-width:0.8;stroke-linecap:butt;stroke-linejoin:round;stroke-miterlimit:10;stroke-dasharray:none;stroke-opacity:1"
       id="path48" /><text
       transform="matrix(1,0,0,-1,350.22961,64.60625)"
       style="font-variant:normal;font-weight:normal;font-size:10px;font-family:DejaVuSans;-inkscape-font-specification:DejaVuSans;writing-mode:lr-tb;fill:#000000;fill-opacity:1;fill-rule:nonzero;stroke:none"
       id="text52"><tspan
         x="0 6.3600001 9.54"
         y="0"
         sodipodi:role="line"
         id="tspan50">1.7</tspan></text><path
       d="M 485.63819,79.2 V 75.7"
       style="fill:#000000;fill-opacity:1;fill-rule:nonzero;stroke:#000000;stroke-width:0.8;stroke-linecap:butt;stroke-linejoin:round;stroke-miterlimit:10;stroke-dasharray:none;stroke-opacity:1"
       id="path54" /><text
       transform="matrix(1,0,0,-1,477.68507,64.60625)"
       style="font-variant:normal;font-weight:normal;font-size:10px;font-family:DejaVuSans;-inkscape-font-specification:DejaVuSans;writing-mode:lr-tb;fill:#000000;fill-opacity:1;fill-rule:nonzero;stroke:none"
       id="text58"><tspan
         x="0 6.3600001 9.54"
         y="0"
         sodipodi:role="line"
         id="tspan56">1.8</tspan></text><path
       d="M 613.09365,79.2 V 75.7"
       style="fill:#000000;fill-opacity:1;fill-rule:nonzero;stroke:#000000;stroke-width:0.8;stroke-linecap:butt;stroke-linejoin:round;stroke-miterlimit:10;stroke-dasharray:none;stroke-opacity:1"
       id="path60" /><text
       transform="matrix(1,0,0,-1,605.14053,64.60625)"
       style="font-variant:normal;font-weight:normal;font-size:10px;font-family:DejaVuSans;-inkscape-font-specification:DejaVuSans;writing-mode:lr-tb;fill:#000000;fill-opacity:1;fill-rule:nonzero;stroke:none"
       id="text64"><tspan
         x="0 6.3600001 9.54"
         y="0"
         sodipodi:role="line"
         id="tspan62">1.9</tspan></text><path
       d="M 740.54911,79.2 V 75.7"
       style="fill:#000000;fill-opacity:1;fill-rule:nonzero;stroke:#000000;stroke-width:0.8;stroke-linecap:butt;stroke-linejoin:round;stroke-miterlimit:10;stroke-dasharray:none;stroke-opacity:1"
       id="path66" /><text
       transform="matrix(1,0,0,-1,732.59598,64.60625)"
       style="font-variant:normal;font-weight:normal;font-size:10px;font-family:DejaVuSans;-inkscape-font-specification:DejaVuSans;writing-mode:lr-tb;fill:#000000;fill-opacity:1;fill-rule:nonzero;stroke:none"
       id="text70"><tspan
         x="0 6.3600001 9.54"
         y="0"
         sodipodi:role="line"
         id="tspan68">2.0</tspan></text><path
       d="M 868.00457,79.2 V 75.7"
       style="fill:#000000;fill-opacity:1;fill-rule:nonzero;stroke:#000000;stroke-width:0.8;stroke-linecap:butt;stroke-linejoin:round;stroke-miterlimit:10;stroke-dasharray:none;stroke-opacity:1"
       id="path72" /><text
       transform="matrix(1,0,0,-1,860.05144,64.60625)"
       style="font-variant:normal;font-weight:normal;font-size:10px;font-family:DejaVuSans;-inkscape-font-specification:DejaVuSans;writing-mode:lr-tb;fill:#000000;fill-opacity:1;fill-rule:nonzero;stroke:none"
       id="text76"><tspan
         x="0 6.3600001 9.54"
         y="0"
         sodipodi:role="line"
         id="tspan74">2.1</tspan></text><path
       d="M 995.46003,79.2 V 75.7"
       style="fill:#000000;fill-opacity:1;fill-rule:nonzero;stroke:#000000;stroke-width:0.8;stroke-linecap:butt;stroke-linejoin:round;stroke-miterlimit:10;stroke-dasharray:none;stroke-opacity:1"
       id="path78" /><text
       transform="matrix(1,0,0,-1,987.5069,64.60625)"
       style="font-variant:normal;font-weight:normal;font-size:10px;font-family:DejaVuSans;-inkscape-font-specification:DejaVuSans;writing-mode:lr-tb;fill:#000000;fill-opacity:1;fill-rule:nonzero;stroke:none"
       id="text82"><tspan
         x="0 6.3600001 9.54"
         y="0"
         sodipodi:role="line"
         id="tspan80">2.2</tspan></text><path
       d="M 1122.9155,79.2 V 75.7"
       style="fill:#000000;fill-opacity:1;fill-rule:nonzero;stroke:#000000;stroke-width:0.8;stroke-linecap:butt;stroke-linejoin:round;stroke-miterlimit:10;stroke-dasharray:none;stroke-opacity:1"
       id="path84" /><text
       transform="matrix(1,0,0,-1,1114.9624,64.60625)"
       style="font-variant:normal;font-weight:normal;font-size:10px;font-family:DejaVuSans;-inkscape-font-specification:DejaVuSans;writing-mode:lr-tb;fill:#000000;fill-opacity:1;fill-rule:nonzero;stroke:none"
       id="text88"><tspan
         x="0 6.3600001 9.54"
         y="0"
         sodipodi:role="line"
         id="tspan86">2.3</tspan></text><path
       d="M 1250.3709,79.2 V 75.7"
       style="fill:#000000;fill-opacity:1;fill-rule:nonzero;stroke:#000000;stroke-width:0.8;stroke-linecap:butt;stroke-linejoin:round;stroke-miterlimit:10;stroke-dasharray:none;stroke-opacity:1"
       id="path90" /><text
       transform="matrix(1,0,0,-1,1242.4178,64.60625)"
       style="font-variant:normal;font-weight:normal;font-size:10px;font-family:DejaVuSans;-inkscape-font-specification:DejaVuSans;writing-mode:lr-tb;fill:#000000;fill-opacity:1;fill-rule:nonzero;stroke:none"
       id="text94"><tspan
         x="0 6.3600001 9.54"
         y="0"
         sodipodi:role="line"
         id="tspan92">2.4</tspan></text><text
       transform="matrix(1,0,0,-1,720.17969,50.934375)"
       style="font-variant:normal;font-weight:normal;font-size:10px;font-family:DejaVuSans;-inkscape-font-specification:DejaVuSans;writing-mode:lr-tb;fill:#000000;fill-opacity:1;fill-rule:nonzero;stroke:none"
       id="text98"><tspan
         x="0 3.9200001 6.6999998 16.440001 22.59 26.49 31.700001"
         y="0"
         sodipodi:role="line"
         id="tspan96">time(s)</tspan></text><path
       d="m 180,87.482329 h -3.5"
       style="fill:#000000;fill-opacity:1;fill-rule:nonzero;stroke:#000000;stroke-width:0.8;stroke-linecap:butt;stroke-linejoin:round;stroke-miterlimit:10;stroke-dasharray:none;stroke-opacity:1"
       id="path100" /><g
       id="g102"
       transform="translate(129.64062,83.685454)"><text
         transform="matrix(1,0,0,-1,8.3789063,0)"
         style="font-variant:normal;font-weight:normal;font-size:10px;font-family:DejaVuSans;-inkscape-font-specification:DejaVuSans;writing-mode:lr-tb;fill:#000000;fill-opacity:1;fill-rule:nonzero;stroke:none"
         id="text106"><tspan
           x="0 6.3600001 9.54 15.9 22.26 28.620001"
           y="0"
           sodipodi:role="line"
           id="tspan104">0.0004</tspan></text><g
         id="g108"
         transform="scale(0.01)"><g
           id="g110"><g
             id="g112"
             clip-path="url(#clipPath116)"><path
               d="M 106,355 H 732 V 272 H 106 v 83"
               style="fill:#000000;fill-opacity:1;fill-rule:nonzero;stroke:none"
               id="path118" /></g></g></g></g><path
       d="m 180,172.73959 h -3.5"
       style="fill:#000000;fill-opacity:1;fill-rule:nonzero;stroke:#000000;stroke-width:0.8;stroke-linecap:butt;stroke-linejoin:round;stroke-miterlimit:10;stroke-dasharray:none;stroke-opacity:1"
       id="path120" /><g
       id="g122"
       transform="translate(129.64062,168.94271)"><text
         transform="matrix(1,0,0,-1,8.3789063,0)"
         style="font-variant:normal;font-weight:normal;font-size:10px;font-family:DejaVuSans;-inkscape-font-specification:DejaVuSans;writing-mode:lr-tb;fill:#000000;fill-opacity:1;fill-rule:nonzero;stroke:none"
         id="text126"><tspan
           x="0 6.3600001 9.54 15.9 22.26 28.620001"
           y="0"
           sodipodi:role="line"
           id="tspan124">0.0002</tspan></text><g
         id="g128"
         transform="scale(0.01)"><g
           id="g130"><g
             id="g132"
             clip-path="url(#clipPath136)"><path
               d="M 106,355 H 732 V 272 H 106 v 83"
               style="fill:#000000;fill-opacity:1;fill-rule:nonzero;stroke:none"
               id="path138" /></g></g></g></g><path
       d="m 180,257.99684 h -3.5"
       style="fill:#000000;fill-opacity:1;fill-rule:nonzero;stroke:#000000;stroke-width:0.8;stroke-linecap:butt;stroke-linejoin:round;stroke-miterlimit:10;stroke-dasharray:none;stroke-opacity:1"
       id="path140" /><text
       transform="matrix(1,0,0,-1,138.01562,254.19997)"
       style="font-variant:normal;font-weight:normal;font-size:10px;font-family:DejaVuSans;-inkscape-font-specification:DejaVuSans;writing-mode:lr-tb;fill:#000000;fill-opacity:1;fill-rule:nonzero;stroke:none"
       id="text144"><tspan
         x="0 6.3600001 9.54 15.9 22.26 28.620001"
         y="0"
         sodipodi:role="line"
         id="tspan142">0.0000</tspan></text><path
       d="m 180,343.2541 h -3.5"
       style="fill:#000000;fill-opacity:1;fill-rule:nonzero;stroke:#000000;stroke-width:0.8;stroke-linecap:butt;stroke-linejoin:round;stroke-miterlimit:10;stroke-dasharray:none;stroke-opacity:1"
       id="path146" /><text
       transform="matrix(1,0,0,-1,138.01562,339.45723)"
       style="font-variant:normal;font-weight:normal;font-size:10px;font-family:DejaVuSans;-inkscape-font-specification:DejaVuSans;writing-mode:lr-tb;fill:#000000;fill-opacity:1;fill-rule:nonzero;stroke:none"
       id="text150"><tspan
         x="0 6.3600001 9.54 15.9 22.26 28.620001"
         y="0"
         sodipodi:role="line"
         id="tspan148">0.0002</tspan></text><path
       d="m 180,428.51136 h -3.5"
       style="fill:#000000;fill-opacity:1;fill-rule:nonzero;stroke:#000000;stroke-width:0.8;stroke-linecap:butt;stroke-linejoin:round;stroke-miterlimit:10;stroke-dasharray:none;stroke-opacity:1"
       id="path152" /><text
       transform="matrix(1,0,0,-1,138.01562,424.71448)"
       style="font-variant:normal;font-weight:normal;font-size:10px;font-family:DejaVuSans;-inkscape-font-specification:DejaVuSans;writing-mode:lr-tb;fill:#000000;fill-opacity:1;fill-rule:nonzero;stroke:none"
       id="text156"><tspan
         x="0 6.3600001 9.54 15.9 22.26 28.620001"
         y="0"
         sodipodi:role="line"
         id="tspan154">0.0004</tspan></text><path
       d="m 180,513.76861 h -3.5"
       style="fill:#000000;fill-opacity:1;fill-rule:nonzero;stroke:#000000;stroke-width:0.8;stroke-linecap:butt;stroke-linejoin:round;stroke-miterlimit:10;stroke-dasharray:none;stroke-opacity:1"
       id="path158" /><text
       transform="matrix(1,0,0,-1,138.01562,509.97174)"
       style="font-variant:normal;font-weight:normal;font-size:10px;font-family:DejaVuSans;-inkscape-font-specification:DejaVuSans;writing-mode:lr-tb;fill:#000000;fill-opacity:1;fill-rule:nonzero;stroke:none"
       id="text162"><tspan
         x="0 6.3600001 9.54 15.9 22.26 28.620001"
         y="0"
         sodipodi:role="line"
         id="tspan160">0.0006</tspan></text><path
       d="m 180,599.02587 h -3.5"
       style="fill:#000000;fill-opacity:1;fill-rule:nonzero;stroke:#000000;stroke-width:0.8;stroke-linecap:butt;stroke-linejoin:round;stroke-miterlimit:10;stroke-dasharray:none;stroke-opacity:1"
       id="path164" /><text
       transform="matrix(1,0,0,-1,138.01562,595.229)"
       style="font-variant:normal;font-weight:normal;font-size:10px;font-family:DejaVuSans;-inkscape-font-specification:DejaVuSans;writing-mode:lr-tb;fill:#000000;fill-opacity:1;fill-rule:nonzero;stroke:none"
       id="text168"><tspan
         x="0 6.3600001 9.54 15.9 22.26 28.620001"
         y="0"
         sodipodi:role="line"
         id="tspan166">0.0008</tspan></text><text
       transform="matrix(0,1,1,0,123.5625,331.12656)"
       style="font-variant:normal;font-weight:normal;font-size:10px;font-family:DejaVuSans;-inkscape-font-specification:DejaVuSans;writing-mode:lr-tb;fill:#000000;fill-opacity:1;fill-rule:nonzero;stroke:none"
       id="text172"><tspan
         x="0 6.1300001 15.87 22.219999 25 27.780001 31.700001 38.040001 44.389999"
         y="0"
         sodipodi:role="line"
         id="tspan170">amplitude</tspan></text><g
       id="g174"><g
         id="g176"
         clip-path="url(#clipPath180)"><path
           d="m 230.72727,257.61755 5.09822,1.36563 5.09822,2.27968 5.09822,-0.61235 5.09822,-0.25404 5.09821,0.51782 5.09822,-0.13954 5.09822,0.0685 5.09822,-0.47615 5.09822,1.24697 5.09822,1.75025 5.09822,-0.39259 5.09821,1.64149 5.09822,-0.54147 5.09822,0.35098 5.09822,0.73359 5.09822,-0.50902 5.09821,-0.34009 5.09822,-1.64629 5.09822,-1.24041 5.09822,-3.4483 5.09822,-0.51552 15.29465,-7.00389 5.09822,-1.73354 5.09822,-2.52686 5.09822,-1.71962 5.09822,-2.1534 5.09821,0.38167 5.09822,-2.22969 5.09822,-0.80979 5.09822,0.73779 10.19644,0.0735 5.09821,1.46259 5.09822,6.90861 5.09822,6.60897 5.09822,4.04351 5.09822,4.19833 5.09822,1.17194 5.09822,-0.99491 5.09821,2.0167 5.09822,5.32155 5.09822,9.63898 5.09822,7.2019 5.09822,4.46959 5.09822,1.16001 5.09821,0.0202 5.09822,-2.51467 5.09822,-3.63795 5.09822,-1.86674 5.09822,-1.63354 5.09822,-0.9646 5.09821,-3.65898 5.09822,-5.31644 5.09822,-5.57275 5.09822,-5.86168 5.09822,-5.642 5.09822,-4.31085 5.09822,-3.43853 5.09821,-6.7415 5.09822,-9.98285 5.09822,-8.59099 5.09822,-5.25717 5.09822,-3.16987 5.09822,-8.09549 5.09821,-14.55694 5.09822,-17.17756 5.09822,-23.34291 5.09822,-25.23026 5.09822,-14.46021 5.09822,-3.5366 5.09821,-4.7398 5.09822,41.59727 5.09822,98.94292 10.19644,222.76348 5.09822,126.61384 5.09821,14.08249 5.09822,-58.22278 5.09822,-79.67918 5.09822,-104.82182 5.09822,-89.28745 5.09821,-51.36576 5.09822,-22.18706 5.09822,-14.47657 5.09822,-7.94901 5.09822,-3.50052 5.09822,2.10134 5.09822,4.25824 5.09821,4.80836 5.09822,3.33902 5.09822,2.24297 5.09822,6.08554 5.09822,8.34992 5.09822,10.90597 5.09821,7.06789 5.09822,6.59722 5.09822,5.89523 5.09822,6.58274 5.09822,5.78443 5.09822,6.2069 5.09821,4.1499 5.09822,3.53567 5.09822,5.28087 5.09822,3.88282 5.09822,5.62541 5.09822,1.91006 5.09821,0.71081 5.09822,-0.89004 5.09822,-0.52314 5.09822,-0.0567 5.09822,0.75772 5.09822,-0.99818 5.09821,-2.32989 5.09822,-2.47389 5.09822,-0.30583 5.09822,-1.76824 5.09822,-2.74821 5.09822,-3.01366 5.09821,-4.60046 5.09822,-1.03153 5.09822,-0.66738 5.09822,-2.9594 5.09822,0.48215 5.09822,-3.39781 5.09821,-3.65177 5.09822,-2.95857 5.09822,-2.12509 5.09822,0.21718 5.09822,-2.89148 5.09822,-1.76654 5.09822,-1.32283 5.09821,-2.39189 5.09822,-0.49415 5.09822,1.12885 5.09822,0.87183 5.09822,0.19536 5.09821,2.06937 5.09822,2.90103 5.09822,2.54495 5.09822,3.30014 5.09822,4.15875 5.09822,3.28499 5.09822,4.16072 5.09821,1.86536 5.09822,4.26339 5.09822,3.80845 5.09822,3.95988 5.09822,2.59615 5.09817,1.29473 5.0983,0.3091 5.0982,-0.94361 10.1964,-7.19249 5.0982,-4.823 5.0983,-3.24939 10.1964,-8.94144 5.0982,-1.3494 5.0982,-2.70887 5.0982,-1.22185 5.0983,-3.69719 5.0982,-0.72682 5.0982,-1.80153 5.0982,-0.31431 5.0982,1.4251 5.0983,0.14223 5.0982,1.01692 5.0982,3.03349 5.0982,-0.68665 5.0982,1.68761 5.0983,3.2447 5.0982,2.5009 5.0982,3.07373 5.0982,0.23013 10.1964,2.28391 5.0983,0.18504 5.0982,1.21959 5.0982,0.6813 5.0982,1.31981 5.0982,-0.94766 5.0983,-2.12926 5.0982,-0.87549 5.0982,-0.26181 5.0982,0.55959 5.0982,-0.28164 5.0982,0.53438 5.0983,0.85111 5.0982,-1.57706 5.0982,-0.60904 5.0982,0.7713 5.0982,-2.37538 5.0983,-0.39116 5.0982,-1.1621 5.0982,1.19179 5.0982,-4.19755 5.0982,-0.66493 v 0"
           style="fill:url(#linearGradient204);stroke:#1f77b4;stroke-width:1.5;stroke-linecap:square;stroke-linejoin:round;stroke-miterlimit:10;stroke-dasharray:none;stroke-opacity:1;fill-opacity:1"
           id="path182" /></g></g><g
       id="g184"><path
         d="M 180,79.2 V 633.6"
         style="fill:none;stroke:#000000;stroke-width:0.8;stroke-linecap:square;stroke-linejoin:miter;stroke-miterlimit:10;stroke-dasharray:none;stroke-opacity:1"
         id="path186" /><path
         d="M 1296,79.2 V 633.6"
         style="fill:none;stroke:#000000;stroke-width:0.8;stroke-linecap:square;stroke-linejoin:miter;stroke-miterlimit:10;stroke-dasharray:none;stroke-opacity:1"
         id="path188" /><path
         d="M 180,79.2 H 1296"
         style="fill:none;stroke:#000000;stroke-width:0.8;stroke-linecap:square;stroke-linejoin:miter;stroke-miterlimit:10;stroke-dasharray:none;stroke-opacity:1"
         id="path190" /><path
         d="M 180,633.6 H 1296"
         style="fill:none;stroke:#000000;stroke-width:0.8;stroke-linecap:square;stroke-linejoin:miter;stroke-miterlimit:10;stroke-dasharray:none;stroke-opacity:1"
         id="path192" /><text
         transform="matrix(1,0,0,-1,698.95312,639.6)"
         style="font-variant:normal;font-weight:normal;font-size:12px;font-family:DejaVuSans;-inkscape-font-specification:DejaVuSans;writing-mode:lr-tb;fill:#000000;fill-opacity:1;fill-rule:nonzero;stroke:none"
         id="text196"><tspan
           x="0 7.2360001 16.68 25.02 32.639999 39.972 43.787998 47.124001 54.731998 59.436001 66.792 73.391998"
           y="0"
           sodipodi:role="line"
           id="tspan194">PQRST intact</tspan></text></g><path
       style="fill:#ff6600;stroke:#ff6600;stroke-width:0.74947699999999984px;stroke-linecap:butt;stroke-linejoin:miter;stroke-opacity:1;fill-opacity:1"
       d="M 474.21251,293.70083 V 78.615825"
       id="path216" /><path
       style="fill:#ff7f2a;stroke:#ff6600;stroke-width:0.75000000000000000px;stroke-linecap:butt;stroke-linejoin:miter;stroke-opacity:1"
       d="M 633.48652,608.39995 V 79.474885"
       id="path1051" /><path
       style="fill:none;stroke:#ff6600;stroke-width:0.75000000000000000px;stroke-linecap:butt;stroke-linejoin:miter;stroke-opacity:1"
       d="M 602.89721,104.39995 V 79.474885"
       id="path1053" /><path
       style="fill:none;stroke:#ff6600;stroke-width:0.75000000000000000px;stroke-linecap:butt;stroke-linejoin:miter;stroke-opacity:1"
       d="M 679.37049,176.9098 V 80.28877"
       id="path1055" /><path
       style="fill:none;stroke:#ff6600;stroke-width:0.75000000000000000px;stroke-linecap:butt;stroke-linejoin:miter;stroke-opacity:1"
       d="M 1000.5582,280.72543 V 79.474885"
       id="path1057" /><text
       xml:space="preserve"
       style="font-size:39.8261px;line-height:1.25;font-family:sans-serif;-inkscape-font-specification:'sans-serif, Normal';fill:#ff0000;stroke-width:0.995652"
       x="935.10449"
       y="-308.80609"
       id="text1061"
       transform="scale(1.0522394,-0.95035406)"><tspan
         sodipodi:role="line"
         id="tspan1059"
         x="935.10449"
         y="-308.80609"
         style="fill:#ff0000;stroke-width:0.995652">T</tspan></text><text
       xml:space="preserve"
       style="font-size:30px;line-height:1.25;font-family:sans-serif;-inkscape-font-specification:'sans-serif, Normal';fill:#ff0000;stroke-width:0.75"
       x="676.33594"
       y="-215.39316"
       id="text1065"
       transform="scale(1,-1)"><tspan
         sodipodi:role="line"
         id="tspan1063"
         x="676.33594"
         y="-215.39316"
         style="fill:#ff0000;stroke-width:0.75">S</tspan></text><text
       xml:space="preserve"
       style="font-size:30px;line-height:1.25;font-family:sans-serif;-inkscape-font-specification:'sans-serif, Normal';fill:#ff0000;stroke-width:0.75"
       x="601.4588"
       y="-607.68433"
       id="text1069"
       transform="scale(1,-1)"><tspan
         sodipodi:role="line"
         id="tspan1067"
         x="601.4588"
         y="-607.68433"
         style="fill:#ff0000;stroke-width:0.75">R</tspan></text><text
       xml:space="preserve"
       style="font-size:30px;line-height:1.25;font-family:sans-serif;-inkscape-font-specification:'sans-serif, Normal';fill:#ff0000;stroke-width:0.75"
       x="466.35437"
       y="-308.17575"
       id="text1073"
       transform="scale(1,-1)"><tspan
         sodipodi:role="line"
         id="tspan1071"
         x="466.35437"
         y="-308.17575"
         style="fill:#ff0000;stroke-width:0.75">P</tspan></text><text
       xml:space="preserve"
       style="font-size:30px;line-height:1.25;font-family:sans-serif;-inkscape-font-specification:'sans-serif, Normal';fill:#ff0000;stroke-width:0.75"
       x="581.11176"
       y="-173.0713"
       id="text1077"
       transform="scale(1,-1)"><tspan
         sodipodi:role="line"
         id="tspan1075"
         x="581.11176"
         y="-173.0713"
         style="fill:#ff0000;stroke-width:0.75">Q</tspan></text></g></svg>
